<svg id="visual" viewBox="0 0 900 600" width="900" height="600" xmlns="http://www.w3.org/2000/svg" xmlns:xlink="http://www.w3.org/1999/xlink" version="1.1"><rect x="0" y="0" width="900" height="600" fill="#f2f4f6"></rect><defs><linearGradient id="grad1_0" x1="33.3%" y1="0%" x2="100%" y2="100%"><stop offset="20%" stop-color="#fbae3c" stop-opacity="1"></stop><stop offset="80%" stop-color="#fbae3c" stop-opacity="1"></stop></linearGradient></defs><defs><linearGradient id="grad1_1" x1="33.3%" y1="0%" x2="100%" y2="100%"><stop offset="20%" stop-color="#fbae3c" stop-opacity="1"></stop><stop offset="80%" stop-color="#ffa674" stop-opacity="1"></stop></linearGradient></defs><defs><linearGradient id="grad1_2" x1="33.3%" y1="0%" x2="100%" y2="100%"><stop offset="20%" stop-color="#ffa9ab" stop-opacity="1"></stop><stop offset="80%" stop-color="#ffa674" stop-opacity="1"></stop></linearGradient></defs><defs><linearGradient id="grad1_3" x1="33.3%" y1="0%" x2="100%" y2="100%"><stop offset="20%" stop-color="#ffa9ab" stop-opacity="1"></stop><stop offset="80%" stop-color="#ffb8d9" stop-opacity="1"></stop></linearGradient></defs><defs><linearGradient id="grad1_4" x1="33.3%" y1="0%" x2="100%" y2="100%"><stop offset="20%" stop-color="#ffcbf8" stop-opacity="1"></stop><stop offset="80%" stop-color="#ffb8d9" stop-opacity="1"></stop></linearGradient></defs><defs><linearGradient id="grad1_5" x1="33.3%" y1="0%" x2="100%" y2="100%"><stop offset="20%" stop-color="#ffcbf8" stop-opacity="1"></stop><stop offset="80%" stop-color="#eddeff" stop-opacity="1"></stop></linearGradient></defs><defs><linearGradient id="grad1_6" x1="33.3%" y1="0%" x2="100%" y2="100%"><stop offset="20%" stop-color="#e6ebff" stop-opacity="1"></stop><stop offset="80%" stop-color="#eddeff" stop-opacity="1"></stop></linearGradient></defs><defs><linearGradient id="grad1_7" x1="33.3%" y1="0%" x2="100%" y2="100%"><stop offset="20%" stop-color="#e6ebff" stop-opacity="1"></stop><stop offset="80%" stop-color="#f2f4f6" stop-opacity="1"></stop></linearGradient></defs><defs><linearGradient id="grad2_0" x1="0%" y1="0%" x2="66.7%" y2="100%"><stop offset="20%" stop-color="#fbae3c" stop-opacity="1"></stop><stop offset="80%" stop-color="#fbae3c" stop-opacity="1"></stop></linearGradient></defs><defs><linearGradient id="grad2_1" x1="0%" y1="0%" x2="66.7%" y2="100%"><stop offset="20%" stop-color="#ffa674" stop-opacity="1"></stop><stop offset="80%" stop-color="#fbae3c" stop-opacity="1"></stop></linearGradient></defs><defs><linearGradient id="grad2_2" x1="0%" y1="0%" x2="66.7%" y2="100%"><stop offset="20%" stop-color="#ffa674" stop-opacity="1"></stop><stop offset="80%" stop-color="#ffa9ab" stop-opacity="1"></stop></linearGradient></defs><defs><linearGradient id="grad2_3" x1="0%" y1="0%" x2="66.7%" y2="100%"><stop offset="20%" stop-color="#ffb8d9" stop-opacity="1"></stop><stop offset="80%" stop-color="#ffa9ab" stop-opacity="1"></stop></linearGradient></defs><defs><linearGradient id="grad2_4" x1="0%" y1="0%" x2="66.7%" y2="100%"><stop offset="20%" stop-color="#ffb8d9" stop-opacity="1"></stop><stop offset="80%" stop-color="#ffcbf8" stop-opacity="1"></stop></linearGradient></defs><defs><linearGradient id="grad2_5" x1="0%" y1="0%" x2="66.7%" y2="100%"><stop offset="20%" stop-color="#eddeff" stop-opacity="1"></stop><stop offset="80%" stop-color="#ffcbf8" stop-opacity="1"></stop></linearGradient></defs><defs><linearGradient id="grad2_6" x1="0%" y1="0%" x2="66.7%" y2="100%"><stop offset="20%" stop-color="#eddeff" stop-opacity="1"></stop><stop offset="80%" stop-color="#e6ebff" stop-opacity="1"></stop></linearGradient></defs><defs><linearGradient id="grad2_7" x1="0%" y1="0%" x2="66.7%" y2="100%"><stop offset="20%" stop-color="#f2f4f6" stop-opacity="1"></stop><stop offset="80%" stop-color="#e6ebff" stop-opacity="1"></stop></linearGradient></defs><g transform="translate(900, 0)"><path d="M0 486.7C-69.9 487 -139.8 487.2 -186.3 449.7C-232.7 412.2 -255.7 336.9 -284.3 284.3C-312.8 231.6 -346.9 201.6 -381.6 158C-416.2 114.4 -451.5 57.2 -486.7 0L0 0Z" fill="#eaf0fb"></path><path d="M0 425.9C-61.2 426.1 -122.3 426.3 -163 393.5C-203.6 360.7 -223.8 294.8 -248.7 248.7C-273.7 202.7 -303.5 176.4 -333.9 138.3C-364.2 100.1 -395.1 50.1 -425.9 0L0 0Z" fill="#e7e5ff"></path><path d="M0 365.1C-52.4 365.2 -104.9 365.4 -139.7 337.3C-174.5 309.1 -191.8 252.7 -213.2 213.2C-234.6 173.7 -260.2 151.2 -286.2 118.5C-312.2 85.8 -338.6 42.9 -365.1 0L0 0Z" fill="#f7d5ff"></path><path d="M0 304.2C-43.7 304.4 -87.4 304.5 -116.4 281.1C-145.5 257.6 -159.8 210.6 -177.7 177.7C-195.5 144.8 -216.8 126 -238.5 98.8C-260.1 71.5 -282.2 35.8 -304.2 0L0 0Z" fill="#ffc1ea"></path><path d="M0 243.4C-35 243.5 -69.9 243.6 -93.1 224.8C-116.4 206.1 -127.9 168.4 -142.1 142.1C-156.4 115.8 -173.4 100.8 -190.8 79C-208.1 57.2 -225.7 28.6 -243.4 0L0 0Z" fill="#ffb0c3"></path><path d="M0 182.5C-26.2 182.6 -52.4 182.7 -69.9 168.6C-87.3 154.6 -95.9 126.3 -106.6 106.6C-117.3 86.9 -130.1 75.6 -143.1 59.3C-156.1 42.9 -169.3 21.5 -182.5 0L0 0Z" fill="#ffa690"></path><path d="M0 121.7C-17.5 121.7 -35 121.8 -46.6 112.4C-58.2 103 -63.9 84.2 -71.1 71.1C-78.2 57.9 -86.7 50.4 -95.4 39.5C-104.1 28.6 -112.9 14.3 -121.7 0L0 0Z" fill="#ffa958"></path><path d="M0 60.8C-8.7 60.9 -17.5 60.9 -23.3 56.2C-29.1 51.5 -32 42.1 -35.5 35.5C-39.1 29 -43.4 25.2 -47.7 19.8C-52 14.3 -56.4 7.2 -60.8 0L0 0Z" fill="#fbae3c"></path></g><g transform="translate(0, 600)"><path d="M0 -486.7C69.5 -479.4 139 -472.1 178.7 -431.5C218.4 -390.8 228.3 -316.8 275.8 -275.8C323.2 -234.8 408.3 -226.7 449.7 -186.3C491.1 -145.8 488.9 -72.9 486.7 0L0 0Z" fill="#eaf0fb"></path><path d="M0 -425.9C60.8 -419.5 121.6 -413.1 156.4 -377.5C191.1 -341.9 199.8 -277.2 241.3 -241.3C282.8 -205.4 357.2 -198.4 393.5 -163C429.7 -127.6 427.8 -63.8 425.9 0L0 0Z" fill="#e7e5ff"></path><path d="M0 -365.1C52.1 -359.6 104.3 -354.1 134 -323.6C163.8 -293.1 171.2 -237.6 206.8 -206.8C242.4 -176.1 306.2 -170.1 337.3 -139.7C368.3 -109.4 366.7 -54.7 365.1 0L0 0Z" fill="#f7d5ff"></path><path d="M0 -304.2C43.4 -299.6 86.9 -295.1 111.7 -269.7C136.5 -244.2 142.7 -198 172.4 -172.4C202 -146.7 255.2 -141.7 281.1 -116.4C307 -91.1 305.6 -45.6 304.2 0L0 0Z" fill="#ffc1ea"></path><path d="M0 -243.4C34.8 -239.7 69.5 -236.1 89.4 -215.7C109.2 -195.4 114.2 -158.4 137.9 -137.9C161.6 -117.4 204.1 -113.4 224.8 -93.1C245.6 -72.9 244.5 -36.5 243.4 0L0 0Z" fill="#ffb0c3"></path><path d="M0 -182.5C26.1 -179.8 52.1 -177 67 -161.8C81.9 -146.5 85.6 -118.8 103.4 -103.4C121.2 -88 153.1 -85 168.6 -69.9C184.2 -54.7 183.4 -27.3 182.5 0L0 0Z" fill="#ffa690"></path><path d="M0 -121.7C17.4 -119.9 34.8 -118 44.7 -107.9C54.6 -97.7 57.1 -79.2 68.9 -68.9C80.8 -58.7 102.1 -56.7 112.4 -46.6C122.8 -36.5 122.2 -18.2 121.7 0L0 0Z" fill="#ffa958"></path><path d="M0 -60.8C8.7 -59.9 17.4 -59 22.3 -53.9C27.3 -48.8 28.5 -39.6 34.5 -34.5C40.4 -29.3 51 -28.3 56.2 -23.3C61.4 -18.2 61.1 -9.1 60.8 0L0 0Z" fill="#fbae3c"></path></g></svg>