<svg id="visual" viewBox="0 0 900 600" width="900" height="600" xmlns="http://www.w3.org/2000/svg" xmlns:xlink="http://www.w3.org/1999/xlink" version="1.1"><rect x="0" y="0" width="900" height="600" fill="#2b2c2b"></rect><defs><linearGradient id="grad1_0" x1="33.3%" y1="0%" x2="100%" y2="100%"><stop offset="20%" stop-color="#2b2c2b" stop-opacity="1"></stop><stop offset="80%" stop-color="#2b2c2b" stop-opacity="1"></stop></linearGradient></defs><defs><linearGradient id="grad2_0" x1="0%" y1="0%" x2="66.7%" y2="100%"><stop offset="20%" stop-color="#2b2c2b" stop-opacity="1"></stop><stop offset="80%" stop-color="#2b2c2b" stop-opacity="1"></stop></linearGradient></defs><g transform="translate(900, 0)"><path d="M0 486.7C-54.7 460.6 -109.5 434.5 -172.2 415.7C-234.9 397 -305.7 385.6 -344.2 344.2C-382.7 302.7 -389 231.1 -407.4 168.8C-425.8 106.4 -456.3 53.2 -486.7 0L0 0Z" fill="#c54c57"></path></g><g transform="translate(0, 600)"><path d="M0 -486.7C63 -465.1 125.9 -443.4 168.4 -406.5C210.8 -369.6 232.8 -317.6 282.8 -282.8C332.9 -248.1 411 -230.5 449.7 -186.3C488.4 -142 487.6 -71 486.7 0L0 0Z" fill="#c54c57"></path></g></svg>