<svg id="visual" viewBox="0 0 960 540" width="960" height="540" xmlns="http://www.w3.org/2000/svg" xmlns:xlink="http://www.w3.org/1999/xlink" version="1.1"><rect x="0" y="0" width="960" height="540" fill="#18192c"></rect><defs><linearGradient id="grad1_0" x1="43.8%" y1="0%" x2="100%" y2="100%"><stop offset="14.444444444444446%" stop-color="#ff4f4f" stop-opacity="1"></stop><stop offset="85.55555555555554%" stop-color="#ff4f4f" stop-opacity="1"></stop></linearGradient></defs><defs><linearGradient id="grad1_1" x1="43.8%" y1="0%" x2="100%" y2="100%"><stop offset="14.444444444444446%" stop-color="#ff4f4f" stop-opacity="1"></stop><stop offset="85.55555555555554%" stop-color="#e23d5f" stop-opacity="1"></stop></linearGradient></defs><defs><linearGradient id="grad1_2" x1="43.8%" y1="0%" x2="100%" y2="100%"><stop offset="14.444444444444446%" stop-color="#c03469" stop-opacity="1"></stop><stop offset="85.55555555555554%" stop-color="#e23d5f" stop-opacity="1"></stop></linearGradient></defs><defs><linearGradient id="grad1_3" x1="43.8%" y1="0%" x2="100%" y2="100%"><stop offset="14.444444444444446%" stop-color="#c03469" stop-opacity="1"></stop><stop offset="85.55555555555554%" stop-color="#9a316b" stop-opacity="1"></stop></linearGradient></defs><defs><linearGradient id="grad1_4" x1="43.8%" y1="0%" x2="100%" y2="100%"><stop offset="14.444444444444446%" stop-color="#732f65" stop-opacity="1"></stop><stop offset="85.55555555555554%" stop-color="#9a316b" stop-opacity="1"></stop></linearGradient></defs><defs><linearGradient id="grad1_5" x1="43.8%" y1="0%" x2="100%" y2="100%"><stop offset="14.444444444444446%" stop-color="#732f65" stop-opacity="1"></stop><stop offset="85.55555555555554%" stop-color="#4e2b57" stop-opacity="1"></stop></linearGradient></defs><defs><linearGradient id="grad1_6" x1="43.8%" y1="0%" x2="100%" y2="100%"><stop offset="14.444444444444446%" stop-color="#2f2344" stop-opacity="1"></stop><stop offset="85.55555555555554%" stop-color="#4e2b57" stop-opacity="1"></stop></linearGradient></defs><defs><linearGradient id="grad1_7" x1="43.8%" y1="0%" x2="100%" y2="100%"><stop offset="14.444444444444446%" stop-color="#2f2344" stop-opacity="1"></stop><stop offset="85.55555555555554%" stop-color="#18192c" stop-opacity="1"></stop></linearGradient></defs><defs><linearGradient id="grad2_0" x1="0%" y1="0%" x2="56.3%" y2="100%"><stop offset="14.444444444444446%" stop-color="#ff4f4f" stop-opacity="1"></stop><stop offset="85.55555555555554%" stop-color="#ff4f4f" stop-opacity="1"></stop></linearGradient></defs><defs><linearGradient id="grad2_1" x1="0%" y1="0%" x2="56.3%" y2="100%"><stop offset="14.444444444444446%" stop-color="#e23d5f" stop-opacity="1"></stop><stop offset="85.55555555555554%" stop-color="#ff4f4f" stop-opacity="1"></stop></linearGradient></defs><defs><linearGradient id="grad2_2" x1="0%" y1="0%" x2="56.3%" y2="100%"><stop offset="14.444444444444446%" stop-color="#e23d5f" stop-opacity="1"></stop><stop offset="85.55555555555554%" stop-color="#c03469" stop-opacity="1"></stop></linearGradient></defs><defs><linearGradient id="grad2_3" x1="0%" y1="0%" x2="56.3%" y2="100%"><stop offset="14.444444444444446%" stop-color="#9a316b" stop-opacity="1"></stop><stop offset="85.55555555555554%" stop-color="#c03469" stop-opacity="1"></stop></linearGradient></defs><defs><linearGradient id="grad2_4" x1="0%" y1="0%" x2="56.3%" y2="100%"><stop offset="14.444444444444446%" stop-color="#9a316b" stop-opacity="1"></stop><stop offset="85.55555555555554%" stop-color="#732f65" stop-opacity="1"></stop></linearGradient></defs><defs><linearGradient id="grad2_5" x1="0%" y1="0%" x2="56.3%" y2="100%"><stop offset="14.444444444444446%" stop-color="#4e2b57" stop-opacity="1"></stop><stop offset="85.55555555555554%" stop-color="#732f65" stop-opacity="1"></stop></linearGradient></defs><defs><linearGradient id="grad2_6" x1="0%" y1="0%" x2="56.3%" y2="100%"><stop offset="14.444444444444446%" stop-color="#4e2b57" stop-opacity="1"></stop><stop offset="85.55555555555554%" stop-color="#2f2344" stop-opacity="1"></stop></linearGradient></defs><defs><linearGradient id="grad2_7" x1="0%" y1="0%" x2="56.3%" y2="100%"><stop offset="14.444444444444446%" stop-color="#18192c" stop-opacity="1"></stop><stop offset="85.55555555555554%" stop-color="#2f2344" stop-opacity="1"></stop></linearGradient></defs><g transform="translate(960, 0)"><path d="M0 459C-31.9 407.4 -63.8 355.8 -113.7 350C-163.6 344.2 -231.5 384.2 -269.8 371.3C-308.1 358.5 -316.8 292.7 -339.8 246.9C-362.8 201 -400 175 -422.3 137.2C-444.5 99.4 -451.8 49.7 -459 0L0 0Z" fill="#221e38"></path><path d="M0 401.6C-27.9 356.5 -55.8 311.3 -99.5 306.2C-143.2 301.2 -202.6 336.2 -236.1 324.9C-269.6 313.7 -277.2 256.1 -297.3 216C-317.4 175.9 -350 153.2 -369.5 120.1C-389 87 -395.3 43.5 -401.6 0L0 0Z" fill="#3e274e"></path><path d="M0 344.3C-23.9 305.5 -47.9 266.8 -85.3 262.5C-122.7 258.1 -173.6 288.2 -202.3 278.5C-231.1 268.9 -237.6 219.5 -254.8 185.2C-272.1 150.8 -300 131.3 -316.7 102.9C-333.4 74.5 -338.8 37.3 -344.2 0L0 0Z" fill="#602d5f"></path><path d="M0 286.9C-19.9 254.6 -39.9 222.4 -71.1 218.7C-102.3 215.1 -144.7 240.1 -168.6 232.1C-192.6 224 -198 183 -212.4 154.3C-226.7 125.6 -250 109.4 -263.9 85.8C-277.8 62.1 -282.3 31.1 -286.9 0L0 0Z" fill="#863069"></path><path d="M0 229.5C-16 203.7 -31.9 177.9 -56.9 175C-81.8 172.1 -115.7 192.1 -134.9 185.7C-154 179.2 -158.4 146.4 -169.9 123.4C-181.4 100.5 -200 87.5 -211.1 68.6C-222.3 49.7 -225.9 24.8 -229.5 0L0 0Z" fill="#ad326b"></path><path d="M0 172.1C-12 152.8 -23.9 133.4 -42.6 131.2C-61.4 129.1 -86.8 144.1 -101.2 139.3C-115.5 134.4 -118.8 109.8 -127.4 92.6C-136 75.4 -150 65.6 -158.4 51.5C-166.7 37.3 -169.4 18.6 -172.1 0L0 0Z" fill="#d23765"></path><path d="M0 114.8C-8 101.8 -16 88.9 -28.4 87.5C-40.9 86 -57.9 96.1 -67.4 92.8C-77 89.6 -79.2 73.2 -84.9 61.7C-90.7 50.3 -100 43.8 -105.6 34.3C-111.1 24.8 -112.9 12.4 -114.7 0L0 0Z" fill="#f24558"></path><path d="M0 57.4C-4 50.9 -8 44.5 -14.2 43.7C-20.5 43 -28.9 48 -33.7 46.4C-38.5 44.8 -39.6 36.6 -42.5 30.9C-45.3 25.1 -50 21.9 -52.8 17.2C-55.6 12.4 -56.5 6.2 -57.4 0L0 0Z" fill="#ff4f4f"></path></g><g transform="translate(0, 540)"><path d="M0 -459C35.5 -421.8 70.9 -384.6 123.3 -379.5C175.7 -374.3 245 -401.2 269.8 -371.3C294.6 -341.4 274.9 -254.7 283.2 -205.7C291.4 -156.7 327.4 -145.4 361.4 -117.4C395.4 -89.4 427.2 -44.7 459 0L0 0Z" fill="#221e38"></path><path d="M0 -401.6C31 -369.1 62.1 -336.5 107.9 -332C153.7 -327.5 214.4 -351.1 236.1 -324.9C257.8 -298.8 240.6 -222.9 247.8 -180C254.9 -137.1 286.5 -127.3 316.2 -102.7C345.9 -78.2 373.8 -39.1 401.6 0L0 0Z" fill="#3e274e"></path><path d="M0 -344.2C26.6 -316.4 53.2 -288.5 92.5 -284.6C131.8 -280.7 183.7 -300.9 202.3 -278.5C221 -256.1 206.2 -191 212.4 -154.3C218.5 -117.5 245.6 -109.1 271.1 -88.1C296.5 -67.1 320.4 -33.5 344.3 0L0 0Z" fill="#602d5f"></path><path d="M0 -286.9C22.2 -263.6 44.3 -240.4 77.1 -237.2C109.8 -234 153.1 -250.8 168.6 -232.1C184.1 -213.4 171.8 -159.2 177 -128.6C182.1 -98 204.7 -90.9 225.9 -73.4C247.1 -55.9 267 -27.9 286.9 0L0 0Z" fill="#863069"></path><path d="M0 -229.5C17.7 -210.9 35.5 -192.3 61.6 -189.7C87.8 -187.2 122.5 -200.6 134.9 -185.7C147.3 -170.7 137.5 -127.4 141.6 -102.9C145.7 -78.4 163.7 -72.7 180.7 -58.7C197.7 -44.7 213.6 -22.4 229.5 0L0 0Z" fill="#ad326b"></path><path d="M0 -172.1C13.3 -158.2 26.6 -144.2 46.2 -142.3C65.9 -140.4 91.9 -150.5 101.2 -139.3C110.5 -128 103.1 -95.5 106.2 -77.1C109.3 -58.8 122.8 -54.5 135.5 -44C148.3 -33.5 160.2 -16.8 172.1 0L0 0Z" fill="#d23765"></path><path d="M0 -114.7C8.9 -105.5 17.7 -96.2 30.8 -94.9C43.9 -93.6 61.2 -100.3 67.4 -92.8C73.7 -85.4 68.7 -63.7 70.8 -51.4C72.8 -39.2 81.9 -36.4 90.4 -29.4C98.8 -22.4 106.8 -11.2 114.8 0L0 0Z" fill="#f24558"></path><path d="M0 -57.4C4.4 -52.7 8.9 -48.1 15.4 -47.4C22 -46.8 30.6 -50.2 33.7 -46.4C36.8 -42.7 34.4 -31.8 35.4 -25.7C36.4 -19.6 40.9 -18.2 45.2 -14.7C49.4 -11.2 53.4 -5.6 57.4 0L0 0Z" fill="#ff4f4f"></path></g></svg>